<?xml version="1.0" standalone="no"?>
<!DOCTYPE svg PUBLIC "-//W3C//DTD SVG 20010904//EN"
 "http://www.w3.org/TR/2001/REC-SVG-20010904/DTD/svg10.dtd">
<svg version="1.0" xmlns="http://www.w3.org/2000/svg"
 width="920.000000pt" height="918.000000pt" viewBox="0 0 920.000000 918.000000"
 preserveAspectRatio="xMidYMid meet">

<g transform="translate(0.000000,918.000000) scale(0.100000,-0.100000)"
fill="#000000" stroke="none">
<path d="M5860 8103 c113 -120 169 -244 170 -375 1 -229 -184 -353 -331 -221
-44 40 -49 36 -17 -16 46 -75 130 -169 166 -187 31 -15 44 -16 91 -6 97 21
185 94 242 202 34 63 34 211 1 283 -54 119 -145 225 -275 321 -116 85 -127 85
-47 -1z"/>
<path d="M3133 8118 c-43 -29 -119 -93 -169 -143 -119 -118 -165 -206 -172
-326 -4 -76 -3 -83 31 -152 44 -88 95 -142 165 -175 59 -27 106 -25 169 5 35
16 198 212 186 222 -3 4 -8 0 -10 -6 -3 -7 -33 -29 -67 -48 -104 -58 -186 -44
-253 43 -45 59 -59 134 -44 239 20 145 69 224 211 346 72 62 51 60 -47 -5z"/>
<path d="M5804 7929 c49 -44 164 -200 178 -240 3 -8 8 -11 12 -8 11 11 -28
101 -68 157 -33 45 -149 142 -171 142 -3 0 19 -23 49 -51z"/>
<path d="M3142 7919 c-82 -62 -158 -179 -150 -232 2 -17 13 -6 50 53 26 41 77
108 113 148 74 80 68 92 -13 31z"/>
<path d="M5471 7537 c-74 -97 -151 -345 -151 -484 0 -55 31 -149 76 -230 36
-66 105 -125 172 -149 127 -45 304 20 459 168 147 142 213 311 213 546 l0 77
-34 -68 c-56 -110 -159 -223 -318 -350 -148 -117 -225 -148 -314 -126 -61 16
-106 61 -127 130 -22 71 -41 232 -34 290 7 59 53 173 85 210 13 17 22 32 19
35 -3 3 -24 -19 -46 -49z"/>
<path d="M3542 7533 c45 -89 60 -132 66 -190 14 -136 -18 -256 -90 -337 -59
-68 -106 -89 -187 -84 -57 3 -74 9 -126 43 -70 46 -256 224 -325 310 -26 33
-59 83 -73 110 l-25 50 -8 -29 c-10 -42 12 -220 36 -290 52 -151 182 -307 326
-392 88 -52 135 -67 205 -67 118 0 211 51 281 153 99 144 102 354 10 575 -29
71 -77 155 -88 155 -3 0 -4 -3 -2 -7z"/>
<path d="M4495 7404 c-8 -33 -50 -165 -93 -294 -73 -225 -76 -239 -76 -325 1
-71 8 -110 32 -185 58 -179 125 -361 130 -355 3 3 11 20 18 38 6 17 41 95 77
172 36 77 73 169 83 205 25 92 24 233 -4 335 -25 96 -139 455 -146 462 -3 3
-12 -21 -21 -53z"/>
<path d="M5658 7185 c-55 -61 -61 -75 -17 -43 28 21 76 85 68 92 -2 2 -25 -20
-51 -49z"/>
<path d="M3284 7195 c10 -16 31 -46 48 -65 l30 -35 -23 42 c-12 24 -34 53 -47
65 l-25 23 17 -30z"/>
<path d="M2598 6863 c-105 -256 -64 -493 115 -658 38 -36 67 -65 64 -65 -3 0
-44 18 -91 40 -47 22 -119 53 -159 69 -115 46 -205 90 -238 118 -16 14 -31 24
-33 22 -1 -2 -22 -44 -46 -92 -24 -49 -53 -93 -63 -99 -10 -5 -71 -59 -134
-120 -88 -84 -131 -117 -186 -144 -39 -19 -77 -34 -83 -34 -23 0 -99 -85 -127
-140 -15 -30 -45 -100 -66 -155 -45 -113 -179 -418 -213 -482 -13 -24 -28 -43
-36 -43 -27 0 -112 51 -162 97 l-51 48 10 83 c6 46 16 95 23 110 17 35 94 92
182 135 166 82 222 159 255 352 7 39 14 80 17 93 8 39 -14 24 -47 -35 -44 -77
-92 -123 -212 -201 -136 -88 -194 -150 -258 -274 -37 -72 -67 -115 -106 -152
l-54 -52 48 -51 c26 -28 75 -80 108 -115 40 -43 81 -76 122 -97 35 -17 63 -36
63 -43 0 -26 -426 -908 -450 -932 -13 -13 -82 37 -126 90 -116 143 -146 272
-109 470 8 44 21 139 30 213 9 79 25 162 40 204 39 113 10 101 -45 -18 -33
-71 -50 -154 -50 -241 0 -67 -15 -94 -26 -47 -9 39 -86 183 -97 183 -17 0 1
-85 43 -209 58 -173 55 -181 -34 -100 -48 44 -56 48 -56 30 0 -27 27 -81 74
-146 37 -51 63 -112 52 -122 -3 -3 -28 8 -56 25 -55 34 -60 29 -30 -37 35 -77
104 -163 229 -284 l121 -117 -180 -388 c-150 -322 -180 -396 -180 -433 0 -77
-72 -41 685 -346 391 -158 1029 -411 1425 -568 190 -75 1047 -421 1180 -477
105 -44 412 -195 555 -273 66 -36 150 -75 187 -87 l66 -21 69 22 c37 12 208
91 378 176 307 152 599 282 870 388 227 89 522 203 635 245 58 21 227 85 375
142 149 57 322 122 385 145 63 23 149 56 190 73 242 99 876 341 995 380 77 24
153 49 169 55 40 15 86 55 86 77 0 10 -18 53 -40 96 -21 44 -66 144 -98 224
-33 80 -96 232 -141 338 -44 107 -81 199 -81 204 0 6 51 63 113 127 110 113
237 272 237 297 0 25 -18 23 -60 -7 -23 -17 -44 -28 -47 -26 -9 10 19 52 68
102 46 48 85 116 72 128 -3 4 -27 -6 -54 -20 -26 -15 -51 -24 -55 -20 -5 4 8
40 28 80 57 116 96 295 59 273 -12 -8 -44 -74 -71 -149 -12 -31 -25 -55 -29
-52 -5 2 -12 46 -16 96 -10 136 -41 227 -100 294 -19 21 -24 24 -19 10 24 -67
86 -327 79 -333 -3 -3 -12 3 -20 14 -14 18 -14 18 -14 -6 -1 -14 6 -61 14
-105 42 -231 -1 -377 -154 -529 l-78 -78 -33 79 c-70 168 -215 507 -296 689
-46 105 -84 198 -84 207 0 8 24 30 53 48 47 30 267 234 267 249 0 3 -16 14
-36 25 -40 22 -72 65 -128 175 -70 136 -108 178 -257 278 -87 58 -159 135
-192 204 -36 77 -45 64 -26 -38 32 -180 102 -286 242 -370 129 -78 168 -129
199 -262 11 -51 11 -53 -18 -83 -32 -34 -142 -119 -153 -119 -8 0 -113 222
-151 320 -12 30 -40 107 -62 170 -71 202 -92 231 -193 272 -76 30 -197 123
-342 261 -108 103 -153 134 -121 85 8 -13 34 -77 57 -143 24 -66 60 -167 81
-225 46 -128 298 -897 375 -1143 64 -208 110 -329 160 -426 20 -39 35 -76 33
-82 -2 -7 -26 13 -52 45 -27 31 -55 56 -63 56 -8 0 -87 -29 -176 -64 -89 -35
-200 -78 -247 -95 -47 -17 -148 -54 -225 -82 -77 -28 -196 -69 -265 -91 -375
-121 -810 -327 -1070 -507 -251 -173 -324 -236 -595 -512 -246 -251 -254 -257
-98 -78 186 212 444 444 658 591 198 135 517 305 728 389 56 22 125 50 152 61
28 11 120 44 205 73 332 113 832 293 872 316 10 5 26 9 37 9 36 0 42 23 16 61
-13 19 -58 133 -100 254 -42 121 -93 270 -114 330 -79 227 -371 1123 -391
1197 -11 43 -20 86 -20 96 0 11 -10 27 -21 38 -12 10 -31 38 -41 62 -11 24
-23 42 -26 40 -7 -3 -281 -111 -418 -164 -33 -13 -64 -24 -69 -24 -4 0 14 19
40 42 54 48 104 143 131 250 24 94 15 228 -24 343 l-30 90 -1 -73 c-2 -167
-58 -304 -174 -428 -84 -90 -176 -152 -414 -278 -214 -113 -292 -159 -389
-232 -40 -30 -76 -54 -82 -54 -6 0 -10 22 -9 53 2 53 -20 690 -28 827 -5 85
-22 150 -41 150 -7 0 -16 -9 -19 -20 -4 -11 -46 -63 -95 -115 -48 -52 -113
-125 -143 -163 -69 -84 -355 -494 -422 -604 l-50 -82 -5 -118 c-3 -64 -10
-122 -15 -127 -30 -30 -54 41 -55 164 0 60 -5 78 -33 127 -78 139 -432 641
-561 796 -47 57 -86 112 -86 122 0 36 -19 31 -40 -11 -23 -45 -32 -111 -50
-394 -7 -93 -16 -208 -20 -255 -5 -47 -12 -145 -16 -217 -4 -73 -9 -133 -11
-133 -2 0 -27 15 -56 34 -87 57 -354 218 -497 301 -227 132 -302 194 -384 316
-59 89 -79 158 -85 294 l-6 120 -17 -42z m1202 -120 c0 -5 27 -39 61 -78 33
-38 100 -124 147 -190 48 -66 90 -124 95 -130 14 -17 137 -206 165 -254 14
-25 29 -48 32 -51 14 -13 40 -71 41 -92 2 -57 -4 -129 -12 -134 -5 -3 -9 -23
-9 -45 0 -21 -4 -39 -9 -39 -5 0 -11 -10 -13 -22 -2 -18 -11 -7 -39 46 -19 39
-41 72 -47 74 -17 5 7 -58 24 -65 8 -3 11 -10 8 -15 -4 -5 3 -23 15 -39 14
-19 20 -37 16 -49 -4 -12 -2 -20 5 -20 6 0 18 -17 26 -37 12 -29 13 -42 4 -61
-8 -20 -8 -27 2 -33 7 -4 9 -11 5 -15 -4 -4 -13 -2 -19 4 -20 20 -36 13 -40
-18 -5 -30 -4 -30 31 -24 31 6 34 5 24 -7 -8 -10 -9 -20 -3 -29 13 -21 12 -60
-1 -60 -7 0 -8 -11 -4 -29 5 -22 0 -40 -19 -70 -31 -49 -31 -53 -7 -75 17 -16
19 -16 25 0 4 9 9 14 13 11 3 -4 0 -14 -7 -22 -10 -12 -10 -21 -1 -41 6 -14
11 -51 10 -82 0 -56 -5 -55 -24 2 -5 19 -7 18 -32 -7 -25 -24 -26 -28 -13 -52
13 -24 40 -35 40 -15 0 6 5 10 10 10 6 0 5 -8 -2 -20 -10 -16 -10 -24 0 -40
14 -22 7 -86 -10 -96 -5 -3 -4 -12 3 -20 14 -17 -2 -19 -19 -2 -32 32 -32 -51
0 -90 9 -10 10 -16 2 -19 -6 -2 -9 -15 -6 -29 6 -32 -17 -50 -33 -27 -13 18
-35 10 -35 -13 0 -8 9 -14 19 -14 21 0 37 -32 26 -50 -4 -6 1 -22 10 -36 9
-14 14 -31 12 -37 -2 -7 0 -22 4 -34 5 -13 5 -23 0 -23 -5 0 -11 5 -13 12 -6
17 -28 0 -28 -21 0 -9 5 -22 12 -29 13 -13 18 -103 5 -95 -16 10 -18 -27 -2
-51 12 -17 16 -40 13 -71 -2 -25 1 -47 7 -50 6 -3 5 -7 -3 -11 -10 -5 -10 -9
-1 -20 7 -8 9 -17 6 -20 -5 -5 -157 219 -187 276 -21 40 -91 132 -97 127 -4
-5 71 -129 172 -287 58 -90 105 -178 109 -205 3 -16 8 -50 11 -75 3 -25 10
-70 16 -100 5 -30 12 -71 14 -90 2 -19 8 -49 13 -67 6 -17 8 -34 5 -37 -3 -3
2 -26 11 -52 9 -26 15 -49 13 -50 -2 -2 -26 43 -55 99 -117 231 -371 625 -497
771 -42 49 -85 107 -97 130 -22 44 -23 21 2 356 6 74 17 250 25 390 14 244 19
309 47 640 6 80 12 301 12 492 1 192 4 348 9 348 4 0 7 -3 7 -7z m1396 -76
c-16 -84 20 -1356 54 -1902 6 -93 11 -196 12 -228 l2 -57 -110 -113 c-157
-160 -218 -234 -314 -382 -68 -104 -66 -102 -64 -64 2 19 8 54 14 78 6 24 9
50 6 58 -3 7 7 24 22 38 15 14 22 25 15 25 -6 0 -14 -6 -17 -12 -4 -7 -4 -3
-2 10 2 12 0 22 -5 22 -5 0 -9 -9 -9 -20 0 -11 -7 -20 -15 -20 -9 0 -12 6 -9
15 4 8 1 15 -5 15 -9 0 -9 5 0 21 9 18 13 19 21 8 7 -11 9 -9 5 7 -3 15 1 20
17 20 17 -1 21 5 21 34 0 26 5 36 18 38 11 2 16 9 13 18 -7 19 3 44 18 44 7 0
23 23 36 51 13 29 32 61 42 71 11 11 28 37 37 59 10 21 20 36 23 33 4 -3 9 4
13 15 3 12 10 21 15 21 13 0 40 54 40 80 0 34 -23 22 -55 -28 -38 -60 -115
-143 -126 -136 -5 3 -6 -3 -2 -12 4 -12 3 -15 -5 -10 -8 5 -12 0 -12 -14 0
-23 -40 -100 -52 -100 -5 0 -8 9 -8 19 0 12 -9 21 -26 25 -23 6 -30 34 -6 29
5 -1 13 9 16 23 4 14 11 22 16 19 6 -3 10 2 10 12 1 17 1 17 14 0 9 -12 16
-14 21 -8 3 6 1 11 -4 11 -18 0 -13 15 14 44 23 24 23 27 5 21 -11 -4 -20 -2
-20 4 0 6 5 11 10 11 6 0 10 6 10 14 0 8 7 16 14 19 8 3 18 22 22 41 3 21 10
33 17 29 6 -4 8 2 5 14 -4 15 -1 20 11 19 11 -1 16 7 16 24 0 31 17 62 64 120
21 25 40 50 44 57 12 19 -3 41 -24 36 -15 -4 -18 -2 -13 11 3 9 2 16 -4 16 -5
0 -12 7 -15 14 -4 10 -1 13 8 10 10 -4 12 0 8 15 -3 12 -1 21 5 21 5 0 15 14
21 32 9 25 8 36 -4 55 -16 24 -35 31 -35 12 0 -5 5 -7 10 -4 6 3 10 -1 10 -9
0 -9 -8 -16 -17 -16 -15 0 -16 -2 -3 -10 13 -9 7 -14 -12 -11 -4 0 -5 -6 -2
-14 4 -11 2 -13 -9 -9 -9 3 -13 14 -11 27 4 22 -1 12 -18 -32 -5 -13 -11 -22
-14 -19 -2 3 0 17 5 32 6 14 8 26 5 26 -3 0 -10 -13 -15 -30 -12 -34 -24 -38
-33 -13 -4 10 -4 14 0 10 4 -4 14 5 21 20 7 16 17 35 22 43 5 8 19 40 31 71
11 30 29 61 39 68 14 10 17 20 11 40 -5 18 -2 29 9 38 13 9 14 14 4 24 -11 11
-13 10 -13 -4 0 -9 -4 -17 -9 -17 -5 0 -12 -11 -15 -25 -6 -25 -26 -35 -26
-13 0 6 -6 3 -14 -7 -8 -11 -12 -24 -9 -30 2 -5 -3 -1 -11 9 -9 11 -16 28 -16
39 0 11 -4 15 -12 11 -13 -8 -13 -7 55 94 62 95 64 100 35 111 -15 6 -24 18
-26 35 -1 15 1 25 6 23 6 -5 9 66 4 118 -2 17 -4 18 -12 5 -5 -8 -10 -10 -10
-5 0 6 5 16 12 23 10 10 16 6 28 -18 14 -27 18 -29 34 -17 18 13 18 15 3 38
-15 21 -17 21 -17 4 0 -14 -3 -16 -11 -8 -8 8 -8 17 0 31 14 26 14 42 1 22 -7
-11 -8 -6 -4 18 5 25 3 32 -10 32 -9 0 -16 5 -16 10 0 12 3 12 24 4 9 -3 16
-12 16 -20 0 -15 12 -19 23 -7 4 3 2 12 -4 19 -8 9 -5 18 11 34 13 13 19 28
15 39 -3 10 2 34 10 54 8 21 12 37 8 37 -3 0 3 10 14 23 30 33 36 67 38 227 1
80 3 196 4 259 2 79 -1 117 -10 125 -9 8 -10 7 -4 -4 6 -12 5 -12 -5 -3 -10 9
-7 19 15 47 15 20 30 36 32 36 3 0 2 -15 -1 -33z m-56 -67 c0 -5 -4 -10 -9
-10 -9 0 -88 -78 -116 -116 -8 -11 -15 -14 -15 -9 0 13 119 145 131 145 5 0 9
-4 9 -10z m-167 -185 c-3 -9 -8 -14 -10 -11 -3 3 -2 9 2 15 9 16 15 13 8 -4z
m-2619 -134 c302 -143 420 -197 476 -218 166 -63 523 -261 472 -263 -8 0 -10
-8 -6 -26 5 -19 3 -25 -4 -20 -8 4 -10 2 -6 -8 3 -8 -4 -24 -15 -35 -12 -12
-16 -21 -11 -21 6 0 10 -4 10 -10 0 -5 -11 -10 -25 -10 -14 0 -25 -2 -25 -4 0
-2 -3 -11 -6 -20 -4 -10 -1 -16 9 -16 8 0 18 8 22 18 12 31 25 -11 30 -93 2
-41 7 -80 10 -85 3 -6 -1 -10 -9 -10 -8 0 -18 5 -21 10 -8 13 -45 13 -45 0 0
-5 21 -25 48 -45 32 -25 46 -43 44 -56 -2 -10 2 -19 9 -19 7 0 9 -3 5 -7 -4
-5 -13 -8 -19 -8 -7 0 -11 -10 -9 -23 2 -12 -2 -22 -7 -22 -6 0 -11 -7 -11
-15 0 -8 7 -15 16 -15 8 0 12 -5 8 -11 -3 -6 0 -15 7 -20 11 -7 11 -9 1 -9 -9
0 -11 -8 -8 -22 3 -13 3 -18 0 -11 -3 7 -12 9 -21 6 -8 -3 -18 -1 -22 5 -4 7
-11 4 -19 -8 -7 -11 -8 -20 -3 -20 5 0 21 -20 35 -45 13 -25 21 -43 15 -40 -5
4 -9 2 -9 -4 0 -5 5 -13 10 -16 15 -9 12 -25 -5 -25 -8 0 -19 -9 -25 -20 -9
-17 -7 -24 12 -40 16 -14 19 -20 8 -20 -8 0 -27 -13 -42 -29 l-28 -28 38 -30
c30 -24 39 -38 39 -62 0 -23 -5 -31 -18 -31 -10 0 -23 -9 -29 -19 -15 -29 -13
-34 14 -29 18 4 27 -2 39 -26 18 -34 35 -116 22 -104 -10 9 -35 -10 -35 -26 0
-6 14 -19 30 -28 40 -23 36 -61 -6 -68 -22 -4 -31 -1 -39 15 -6 11 -19 21 -29
23 -14 3 -17 -2 -14 -24 3 -24 10 -30 48 -39 25 -7 44 -17 42 -23 -1 -7 3 -12
9 -12 6 0 9 -7 5 -15 -3 -8 -1 -15 5 -15 6 0 8 -4 4 -9 -3 -5 -1 -12 5 -16 5
-3 10 -12 10 -18 0 -7 -4 -6 -10 3 -7 10 -10 11 -10 2 0 -13 -47 -7 -65 9 -17
16 -25 10 -25 -19 0 -20 8 -33 28 -44 55 -33 167 -141 164 -159 -2 -9 5 -20
15 -23 16 -7 16 -9 3 -19 -8 -7 -21 -25 -28 -41 -14 -31 -8 -42 51 -95 15 -14
27 -32 27 -41 0 -8 11 -27 25 -42 14 -15 22 -34 19 -42 -5 -12 -11 -11 -42 7
-20 11 -44 26 -52 32 -8 7 -37 24 -65 39 l-50 28 35 -32 c19 -18 51 -42 71
-55 71 -46 203 -190 282 -308 29 -43 105 -134 143 -171 12 -12 36 -47 54 -78
17 -32 36 -58 41 -58 5 0 9 -6 9 -14 0 -8 14 -26 31 -40 17 -14 28 -26 26 -26
-3 0 5 -20 19 -45 13 -25 19 -45 14 -45 -14 0 0 -30 14 -30 6 0 19 -17 29 -38
14 -28 -16 -3 -130 110 -219 217 -444 388 -728 553 -146 84 -332 175 -520 254
-107 44 -1051 369 -1143 393 -23 7 -41 16 -39 22 3 6 54 135 115 286 167 419
205 520 322 845 59 165 135 372 169 460 35 88 81 211 104 272 23 62 44 113 46
113 2 0 31 -13 65 -29z m4431 -78 c15 -58 43 -149 62 -202 48 -133 203 -596
301 -896 155 -477 170 -521 216 -638 25 -65 46 -120 46 -123 0 -3 -20 -13 -44
-23 -44 -19 -75 -31 -591 -212 -477 -167 -573 -204 -725 -276 -485 -233 -890
-519 -1196 -847 -54 -58 -103 -106 -108 -106 -5 0 2 12 16 28 13 15 42 59 63
97 42 77 76 128 88 133 4 2 7 12 7 23 0 10 6 19 14 19 8 0 19 14 25 30 5 17
14 30 18 30 4 0 14 15 22 33 8 17 24 44 37 59 12 15 35 53 50 84 15 31 33 58
41 61 7 3 13 10 13 15 0 6 11 23 25 40 14 16 25 36 25 44 0 17 -22 18 -38 2
-9 -9 -12 -8 -12 4 0 9 11 19 25 22 13 3 29 15 35 26 6 10 35 40 66 65 31 25
53 45 49 45 -4 0 10 19 29 42 20 23 36 45 36 50 0 23 -32 -1 -112 -82 -48 -49
-90 -90 -93 -90 -3 0 -1 10 6 22 10 18 9 20 -7 14 -10 -4 -15 -3 -10 1 4 4 29
33 54 63 52 62 157 165 227 225 65 54 39 57 -32 2 -70 -53 -100 -70 -113 -62
-6 3 -7 -1 -4 -9 6 -16 -11 -23 -20 -8 -8 13 5 52 15 46 5 -3 9 2 9 10 0 9 5
15 12 14 7 -2 12 2 13 7 2 23 30 60 91 117 35 34 64 65 64 69 0 16 -21 9 -66
-22 -25 -17 -47 -29 -49 -27 -10 10 9 49 21 44 10 -4 14 4 15 27 1 18 2 37 3
42 2 21 42 61 74 74 17 7 32 17 32 22 0 15 -50 10 -56 -6 -11 -27 -24 -5 -24
39 0 48 16 67 88 106 31 17 42 30 42 47 0 13 -3 23 -6 23 -17 0 -44 -23 -45
-38 0 -10 -3 -12 -6 -4 -2 6 -13 12 -24 12 -11 0 -19 7 -19 18 0 13 2 14 9 4
6 -10 10 -7 13 12 4 21 3 24 -8 15 -11 -9 -14 -8 -14 2 0 15 39 59 53 59 10 0
37 12 175 77 73 34 92 48 92 64 0 16 -4 19 -17 14 -10 -4 -38 -14 -63 -23 -62
-20 -108 -41 -115 -52 -9 -14 -83 -32 -105 -25 -19 6 -19 6 0 25 10 10 24 46
31 79 6 33 15 58 20 55 5 -3 24 6 41 19 18 13 42 27 52 31 13 4 16 10 9 17 -6
6 -19 6 -38 -1 -32 -12 -31 -13 -40 23 -6 21 -4 27 10 27 23 0 48 27 41 45 -8
21 -28 19 -55 -7 -13 -11 -34 -22 -47 -24 -20 -2 -24 2 -24 27 0 16 -4 29 -10
29 -5 0 -10 6 -10 13 1 13 80 67 99 67 31 0 71 31 71 55 0 29 8 32 24 9 7 -9
18 -12 29 -8 26 10 21 19 -20 33 -27 10 -38 11 -41 2 -2 -6 -9 -11 -16 -11 -7
0 -19 -11 -26 -25 -10 -19 -16 -22 -27 -14 -18 15 -17 39 2 39 8 0 15 7 15 15
0 8 7 15 15 15 9 0 24 13 33 30 9 16 20 30 25 30 4 0 7 7 7 15 0 21 -27 7 -34
-17 -4 -18 -7 -19 -20 -9 -17 15 -51 7 -41 -9 12 -19 -41 -15 -62 5 -10 10
-10 20 -3 40 9 24 7 26 -21 32 l-30 6 35 29 c37 30 47 58 22 58 -8 0 -21 -8
-28 -18 -7 -10 -22 -21 -32 -25 -16 -6 -17 -5 -7 7 7 8 10 20 7 25 -4 5 -2 12
4 16 7 4 7 12 0 25 -7 13 -6 21 4 29 11 9 12 6 8 -15 -4 -21 -1 -25 14 -22 14
2 18 11 18 36 -1 19 4 32 11 32 7 0 15 10 19 23 5 18 8 20 16 7 5 -8 10 -10
10 -5 0 6 23 25 50 44 35 24 50 41 50 57 0 13 -4 26 -10 29 -6 3 -10 -4 -10
-17 0 -34 -10 -42 -65 -56 -27 -7 -53 -19 -58 -25 -7 -9 -10 -9 -14 1 -2 6 -9
10 -14 6 -5 -3 -9 8 -9 25 0 42 -38 78 -55 51 -4 -6 -11 -7 -17 -4 -6 4 -14 0
-19 -7 -5 -8 -9 -9 -9 -4 0 6 21 27 48 47 162 121 438 255 987 478 39 16 133
56 210 89 77 33 143 60 146 61 3 0 18 -48 34 -107z m-4680 -149 c-9 -22 -26
-68 -37 -104 -11 -36 -34 -99 -50 -140 -17 -41 -65 -174 -108 -295 -43 -121
-98 -272 -123 -335 -25 -63 -68 -173 -96 -245 -28 -71 -68 -173 -88 -225 -20
-52 -55 -135 -76 -185 -22 -49 -57 -139 -78 -199 -21 -60 -41 -111 -44 -114
-21 -22 23 109 113 334 33 82 73 190 90 239 17 50 49 137 72 195 95 240 142
364 199 520 32 91 69 188 81 215 12 28 33 82 46 120 29 83 107 266 112 261 2
-2 -4 -21 -13 -42z m4937 -34 c38 -86 120 -333 183 -553 35 -122 72 -247 83
-277 11 -30 36 -104 57 -165 20 -60 54 -155 75 -210 21 -55 75 -203 120 -330
45 -126 99 -276 121 -332 57 -149 59 -141 -41 -180 -130 -52 -496 -173 -535
-178 -5 -1 -27 -9 -48 -18 -61 -26 -116 -39 -139 -31 -21 6 -21 7 -3 21 12 8
30 11 49 7 21 -5 27 -3 21 6 -6 10 -1 11 18 6 14 -3 29 -2 32 4 3 5 14 10 25
10 10 0 20 6 23 14 3 7 15 16 27 19 17 4 19 3 9 -9 -13 -15 -9 -17 15 -8 9 3
16 12 16 19 0 7 10 15 23 18 12 3 47 15 77 27 73 30 98 39 285 106 88 32 162
59 164 60 1 2 -8 18 -22 36 -13 18 -30 56 -37 83 -7 28 -38 113 -67 190 -72
187 -341 999 -397 1200 -24 88 -73 239 -109 335 -36 96 -68 184 -72 195 l-7
20 17 -20 c9 -11 26 -40 37 -65z m133 -132 c18 -40 51 -125 73 -188 22 -63 66
-182 97 -265 32 -82 83 -224 115 -315 32 -91 74 -205 94 -253 45 -108 85 -214
141 -377 62 -177 124 -338 183 -471 28 -62 86 -209 130 -325 44 -116 87 -225
96 -242 25 -48 19 -57 -16 -27 -31 26 -36 27 -113 22 -44 -3 -136 -13 -205
-21 -69 -8 -152 -18 -185 -22 -33 -4 -57 -4 -54 0 3 3 89 17 190 31 283 37
279 37 279 51 0 22 -30 44 -53 39 -12 -2 -62 -12 -112 -20 -160 -28 -465 -82
-643 -114 -485 -87 -1009 -260 -1487 -491 -413 -199 -588 -298 -741 -417 -49
-38 -102 -78 -119 -88 -59 -37 33 43 158 136 158 118 333 219 710 410 362 182
786 334 1169 418 166 36 395 76 553 95 66 8 172 24 235 36 103 19 154 28 258
47 36 6 41 25 16 62 -33 46 -72 54 -334 61 -236 6 -290 14 -290 40 0 6 7 10
15 10 9 0 12 6 9 15 -4 8 -15 15 -26 15 -10 0 -17 4 -14 9 4 5 -18 3 -46 -5
-120 -32 -64 -7 137 61 94 32 191 68 217 81 26 13 51 24 56 24 4 0 44 -41 87
-92 126 -145 154 -174 155 -158 0 21 -51 106 -110 185 -28 36 -48 70 -45 75 3
5 18 5 34 0 16 -4 32 -6 34 -4 8 8 -11 78 -44 160 -34 86 -128 337 -189 505
-21 59 -62 167 -91 240 -28 74 -73 202 -99 284 -26 83 -89 272 -139 420 -84
247 -131 399 -131 425 0 24 13 5 45 -62z m-2162 -6 c-3 -9 -13 -23 -22 -30
-14 -11 -14 -14 -1 -22 17 -11 3 -12 -23 -2 -16 7 -16 11 10 44 28 36 47 42
36 10z m37 -8 c0 -8 -7 -14 -15 -14 -17 0 -18 2 -9 24 7 18 24 12 24 -10z
m2227 -17 c25 -32 127 -269 323 -747 25 -63 72 -173 103 -245 48 -112 207
-484 444 -1040 35 -82 89 -212 119 -288 30 -76 75 -179 99 -229 25 -49 45 -92
45 -94 0 -2 -9 -4 -21 -4 -12 0 -35 -6 -52 -14 -69 -31 -222 -92 -437 -173
-124 -47 -272 -103 -330 -125 -58 -22 -168 -64 -245 -93 -77 -29 -248 -93
-380 -142 -132 -50 -251 -94 -265 -98 -14 -4 -43 -16 -65 -25 -40 -18 -69 -29
-320 -120 -77 -28 -172 -64 -210 -80 -39 -16 -93 -36 -120 -45 -28 -10 -63
-23 -80 -31 -16 -7 -129 -51 -250 -98 -286 -110 -632 -249 -687 -277 -44 -22
-103 -67 -102 -78 1 -14 -32 -39 -44 -32 -8 5 3 24 37 62 51 57 84 76 266 148
55 21 156 62 225 91 161 67 382 153 735 287 22 9 49 19 60 23 11 5 43 16 70
25 76 26 188 66 210 75 11 4 38 14 60 23 22 8 72 27 110 42 103 40 104 40 185
70 41 14 84 31 95 36 76 33 754 288 1025 384 58 20 119 43 135 50 17 6 75 29
130 50 55 21 119 46 142 56 24 11 47 19 53 19 18 0 11 27 -23 83 -18 30 -48
90 -67 133 -102 241 -283 642 -333 741 -15 28 -45 98 -67 155 -22 57 -45 112
-50 123 -5 11 -39 94 -76 185 -139 344 -272 668 -301 735 -91 208 -135 320
-149 382 -9 37 -20 80 -24 96 -10 33 2 35 27 4z m-2330 -149 c-3 -8 -6 -5 -6
6 -1 11 2 17 5 13 3 -3 4 -12 1 -19z m300 -70 c-2 -13 -4 -3 -4 22 0 25 2 35
4 23 2 -13 2 -33 0 -45z m-247 31 c0 8 2 12 5 9 3 -3 2 -13 -1 -22 -5 -14 -9
-15 -15 -4 -5 7 -9 18 -9 23 0 6 5 3 10 -5 8 -12 10 -12 10 -1z m-30 -39 c0
10 3 11 11 3 8 -8 5 -17 -11 -33 -18 -18 -24 -20 -31 -9 -5 8 -8 19 -8 24 0 6
3 4 6 -2 9 -23 25 -14 18 10 -5 17 -4 19 4 7 9 -13 11 -13 11 0z m379 -3 c-2
-1 -13 -9 -24 -17 -19 -14 -19 -14 -6 3 7 9 18 17 24 17 6 0 8 -1 6 -3z m-405
-89 c-4 -6 -10 -5 -15 3 -14 22 -10 33 6 19 8 -7 12 -17 9 -22z m-14 -33 c0
-5 -5 -3 -10 5 -5 8 -10 20 -10 25 0 6 5 3 10 -5 5 -8 10 -19 10 -25z m327
-12 c-3 -10 -5 -4 -5 12 0 17 2 24 5 18 2 -7 2 -21 0 -30z m-271 6 c3 -6 2
-14 -3 -18 -5 -3 -15 -21 -22 -39 -8 -18 -15 -31 -17 -29 -3 2 3 20 11 40 18
44 19 50 3 41 -7 -4 -8 -3 -4 4 9 15 23 15 32 1z m-50 -236 c-3 -4 -6 -1 -6 6
0 7 -4 9 -10 6 -6 -4 -7 1 -3 11 6 15 7 15 15 -1 6 -9 7 -19 4 -22z m-16 -90
c-23 -41 -23 -38 0 20 8 21 16 34 18 28 2 -5 -6 -27 -18 -48z m447 -145 c-3
-8 -6 -5 -6 6 -1 11 2 17 5 13 3 -3 4 -12 1 -19z m0 -80 c-2 -13 -4 -3 -4 22
0 25 2 35 4 23 2 -13 2 -33 0 -45z m-345 -10 c-15 -15 -24 -6 -16 16 5 12 10
14 17 7 8 -8 8 -14 -1 -23z m26 -26 c2 -7 -2 -10 -12 -6 -9 3 -16 11 -16 16 0
13 23 5 28 -10z m-33 -23 c1 -17 -5 -25 -17 -26 -23 -2 -34 15 -19 30 9 9 10
7 5 -7 -5 -14 -4 -17 5 -12 7 5 10 17 8 28 -4 12 -1 18 6 15 7 -2 12 -15 12
-28z m366 -47 c1 -40 -1 -75 -5 -79 -3 -3 -6 31 -6 77 0 101 8 103 11 2z
m-427 -23 c-8 -13 -21 -11 -27 5 -4 10 0 12 14 9 10 -3 16 -9 13 -14z m-104
-19 c0 -5 -5 -10 -11 -10 -5 0 -7 5 -4 10 3 6 8 10 11 10 2 0 4 -4 4 -10z
m648 -4 c-7 -8 -15 -12 -17 -11 -5 6 10 25 20 25 5 0 4 -6 -3 -14z m-191 -158
c-2 -24 -4 -5 -4 42 0 47 2 66 4 43 2 -24 2 -62 0 -85z m80 40 c-3 -8 -6 -5
-6 6 -1 11 2 17 5 13 3 -3 4 -12 1 -19z m-587 -292 c0 -3 -4 -8 -10 -11 -5 -3
-10 -1 -10 4 0 6 5 11 10 11 6 0 10 -2 10 -4z m7 -58 c-3 -8 -6 -5 -6 6 -1 11
2 17 5 13 3 -3 4 -12 1 -19z m-1522 -8 c22 -24 18 -31 -12 -19 -13 5 -23 15
-23 24 0 21 13 19 35 -5z m-1360 -195 c310 -103 631 -217 801 -284 273 -107
647 -316 865 -482 174 -132 396 -335 502 -458 117 -137 107 -129 -96 73 -333
334 -625 545 -1002 727 -211 101 -500 212 -1005 384 -170 57 -341 122 -350
132 -3 3 4 3 15 -1 11 -4 133 -45 270 -91z m2007 -30 c17 -27 23 -44 14 -36
-16 14 -96 123 -110 151 -15 31 66 -67 96 -115z m3609 -2 c27 -16 49 -30 49
-33 0 -3 -80 -31 -178 -63 -97 -32 -231 -77 -297 -101 -66 -23 -149 -50 -185
-60 -36 -10 -103 -31 -150 -47 -47 -15 -128 -41 -180 -57 -263 -83 -710 -285
-862 -390 -37 -26 -151 -105 -254 -177 -208 -144 -437 -314 -442 -327 -2 -4
-11 -8 -20 -8 -31 1 176 172 393 325 39 28 82 59 97 70 87 64 160 115 164 115
10 0 84 53 80 58 -19 18 -353 -181 -491 -293 -33 -27 -96 -78 -140 -114 -215
-175 -389 -361 -499 -533 -20 -32 -39 -58 -42 -58 -3 0 16 40 41 90 69 132
243 322 455 494 41 33 116 94 166 136 164 135 381 273 604 384 279 138 376
178 697 285 221 73 429 147 688 244 182 68 223 82 249 86 4 0 30 -11 57 -26z
m-5878 -32 c176 -75 588 -223 737 -266 129 -36 348 -113 450 -158 336 -146
691 -353 910 -530 121 -99 381 -364 456 -467 74 -101 134 -188 134 -195 0 -2
14 -27 30 -56 55 -93 22 -64 -47 42 -205 313 -439 557 -747 777 -154 110 -312
211 -330 212 -15 0 45 -59 84 -83 43 -27 161 -115 260 -197 41 -33 102 -82
135 -107 136 -106 216 -183 188 -183 -5 0 -53 37 -108 83 -295 243 -648 474
-895 585 -256 115 -327 142 -585 222 -16 5 -59 16 -95 25 -136 35 -290 91
-290 106 0 5 -7 6 -15 3 -8 -4 -15 -1 -15 6 0 6 -4 8 -10 5 -5 -3 -72 14 -147
39 -76 25 -151 48 -168 52 -16 4 -34 9 -40 13 -10 6 -116 34 -185 50 -33 7
-34 8 -10 14 14 4 59 15 100 25 103 26 100 27 203 -17z m2447 -231 c6 -11 8
-20 6 -20 -3 0 -10 9 -16 20 -6 11 -8 20 -6 20 3 0 10 -9 16 -20z m128 -245
c93 -186 163 -371 161 -428 -1 -21 -3 -25 -6 -12 -32 132 -108 325 -200 510
-36 72 -60 126 -55 120 6 -5 51 -91 100 -190z m2651 156 c8 -6 -7 -11 -45 -16
-33 -4 -67 -11 -77 -17 -18 -9 -36 -4 -25 8 7 7 97 32 118 33 8 0 21 -3 29 -8z
m-164 -41 c-3 -5 -12 -10 -18 -10 -7 0 -6 4 3 10 19 12 23 12 15 0z m1045 -85
c0 -10 -48 -24 -191 -54 -139 -29 -230 -45 -542 -97 -168 -27 -192 -33 -367
-81 -563 -156 -1035 -371 -1510 -686 -163 -109 -230 -159 -335 -254 -44 -39
-81 -70 -84 -68 -5 5 123 130 194 190 255 215 803 537 1130 664 431 168 732
251 1176 326 52 8 115 20 141 26 123 28 388 51 388 34z m-4995 -95 c3 -6 -1
-7 -9 -4 -18 7 -21 14 -7 14 6 0 13 -4 16 -10z m95 -36 l25 -15 -25 7 c-14 3
-32 10 -40 15 -13 7 -13 8 0 8 8 0 26 -6 40 -15z m-2161 -63 c-16 -35 -32 -61
-35 -58 -3 3 9 33 26 67 17 34 33 60 36 58 2 -3 -10 -33 -27 -67z m1489 38
c195 -47 456 -126 637 -194 460 -172 927 -445 1225 -715 44 -41 32 -32 -110
71 -245 180 -420 285 -675 406 -362 172 -805 328 -1167 413 -33 7 -55 17 -51
23 4 6 -2 8 -15 5 -13 -4 -23 0 -26 8 -8 22 41 17 182 -17z m-333 -54 c99 -24
275 -67 390 -95 254 -62 756 -228 790 -261 5 -5 15 -9 23 -9 17 0 438 -210
567 -283 180 -101 363 -223 352 -234 -3 -2 -25 10 -49 27 -65 48 -310 191
-423 248 -223 111 -373 176 -680 293 -115 44 -225 87 -243 95 -28 13 -184 60
-277 84 -16 4 -158 42 -315 83 -157 41 -312 82 -345 91 -54 14 -56 15 -15 11
25 -3 126 -25 225 -50z m4111 -6 c-65 -33 -120 -58 -123 -56 -5 6 217 117 232
117 5 -1 -43 -28 -109 -61z m-4767 21 c193 -46 568 -145 756 -200 110 -32 279
-81 375 -109 356 -104 887 -310 1300 -505 183 -86 404 -208 417 -229 7 -12 18
-16 -147 65 -74 37 -229 105 -345 153 -115 47 -219 90 -230 95 -355 159 -891
363 -1075 410 -25 6 -151 42 -280 80 -129 38 -293 85 -365 106 -379 108 -528
153 -511 153 10 1 57 -8 105 -19z m1796 0 c3 -6 -1 -7 -9 -4 -18 7 -21 14 -7
14 6 0 13 -4 16 -10z m4999 0 c-13 -13 -270 -81 -649 -174 -533 -130 -1018
-275 -1366 -411 -198 -77 -678 -292 -927 -416 -119 -59 -218 -106 -220 -104
-3 3 152 106 208 137 153 85 279 146 564 270 349 153 554 238 570 238 6 0 24
7 41 16 53 27 343 111 710 204 445 114 399 103 650 156 116 24 255 55 310 68
117 29 122 29 109 16z m-4939 -30 c3 -6 -1 -7 -9 -4 -18 7 -21 14 -7 14 6 0
13 -4 16 -10z m4400 -6 c-33 -7 -69 -13 -80 -13 -34 1 68 27 105 27 28 0 23
-3 -25 -14z m-215 -41 c-169 -39 -603 -133 -609 -132 -33 3 246 73 460 114
176 34 268 45 149 18z m-1414 -12 c-6 -10 -82 -51 -94 -51 -6 0 89 59 96 60 2
0 1 -4 -2 -9z m-2651 -11 c3 -6 -1 -7 -9 -4 -18 7 -21 14 -7 14 6 0 13 -4 16
-10z m-1140 -30 l20 -9 -20 0 c-11 0 -29 4 -40 9 l-20 9 20 0 c11 0 29 -4 40
-9z m1190 0 c3 -6 -1 -7 -9 -4 -18 7 -21 14 -7 14 6 0 13 -4 16 -10z m-2397
-94 c79 -31 145 -56 147 -56 3 0 40 -16 82 -36 43 -20 137 -58 208 -84 72 -27
209 -80 305 -118 96 -38 243 -97 325 -129 83 -33 168 -68 190 -77 22 -10 87
-35 145 -56 58 -21 193 -73 300 -115 107 -43 278 -110 380 -150 102 -40 295
-117 430 -172 135 -55 335 -134 445 -177 290 -113 296 -116 340 -146 22 -15
58 -50 80 -78 125 -156 337 -186 506 -72 55 37 83 29 37 -11 -74 -64 -179 -94
-292 -86 -80 5 -172 42 -202 79 -11 13 -27 27 -36 31 -10 3 -18 11 -18 17 0 6
5 8 12 4 7 -4 8 -3 4 5 -4 6 -11 9 -15 6 -5 -2 -22 13 -39 34 -41 51 -119 87
-467 216 -93 34 -318 122 -500 195 -181 73 -346 138 -365 145 -49 18 -461 184
-485 195 -11 5 -74 30 -140 55 -66 26 -192 75 -280 110 -88 35 -209 83 -270
106 -60 23 -128 50 -150 59 -22 10 -92 38 -155 63 -63 24 -160 62 -215 84
-118 48 -270 108 -340 135 -27 11 -84 31 -125 45 -41 14 -77 27 -79 29 -2 2 4
13 13 23 17 19 18 19 49 1 18 -10 96 -43 175 -74z m1282 74 c20 -6 21 -8 5 -8
-11 0 -29 3 -40 8 -25 11 1 11 35 0z m3610 -4 c0 -2 -7 -7 -16 -10 -8 -3 -12
-2 -9 4 6 10 25 14 25 6z m-3481 -32 c10 -9 -35 -3 -49 6 -11 8 -7 9 15 4 17
-4 32 -8 34 -10z m5701 -54 c-8 -5 -19 -10 -25 -10 -5 0 -3 5 5 10 8 5 20 10
25 10 6 0 3 -5 -5 -10z m-5423 -16 c-3 -3 -12 -4 -19 -1 -8 3 -5 6 6 6 11 1
17 -2 13 -5z m5328 -19 c-27 -13 -57 -24 -65 -24 -8 0 10 11 40 24 71 30 90
30 25 0z m-625 -16 c-67 -20 -87 -23 -78 -13 9 8 99 32 123 32 11 0 -9 -8 -45
-19z m-93 -25 c-3 -3 -12 -4 -19 -1 -8 3 -5 6 6 6 11 1 17 -2 13 -5z m-5187
-14 c13 -8 13 -10 -2 -10 -9 0 -20 5 -23 10 -8 13 5 13 25 0z m5117 -6 c-3 -3
-12 -4 -19 -1 -8 3 -5 6 6 6 11 1 17 -2 13 -5z m-4989 -23 c41 -11 77 -22 80
-26 4 -4 -4 -4 -18 0 -143 35 -172 43 -155 44 11 0 53 -8 93 -18z m5567 9 c-3
-5 -12 -10 -18 -10 -7 0 -6 4 3 10 19 12 23 12 15 0z m-50 -20 c-3 -5 -11 -10
-16 -10 -6 0 -7 5 -4 10 3 6 11 10 16 10 6 0 7 -4 4 -10z m-37 -15 c-3 -3 -43
-19 -89 -36 -86 -31 -100 -27 -19 5 25 10 52 22 60 26 16 10 57 13 48 5z
m-1558 -55 c-20 -13 -33 -13 -25 0 3 6 14 10 23 10 15 0 15 -2 2 -10z m1341
-26 c-19 -8 -36 -12 -39 -9 -6 6 37 24 58 24 8 0 0 -6 -19 -15z m-1431 -8 c0
-2 -7 -7 -16 -10 -8 -3 -12 -2 -9 4 6 10 25 14 25 6z m850 -18 c-14 -5 -70
-12 -125 -15 -89 -4 -158 -18 -220 -42 -127 -51 -756 -263 -762 -257 -7 6 261
105 497 183 140 47 284 97 320 111 65 25 214 42 285 33 l29 -4 -24 -9z m400
-38 c-8 -5 -22 -9 -30 -9 -10 0 -8 3 5 9 27 12 43 12 25 0z m-2237 -207 c-71
-71 -149 -155 -173 -188 -24 -33 -59 -76 -78 -95 l-35 -35 39 55 c74 107 173
225 225 270 29 25 57 50 63 55 16 15 80 65 84 65 2 0 -54 -57 -125 -127z
m-1787 4 c113 -45 184 -77 184 -83 0 -2 -17 3 -37 12 -48 20 -281 109 -353
135 -30 11 -59 24 -64 29 -10 10 125 -37 270 -93z m1075 66 c13 -16 12 -17 -3
-4 -10 7 -18 15 -18 17 0 8 8 3 21 -13z m1669 -133 c0 -5 -7 -10 -16 -10 -8 0
-12 5 -9 10 3 6 10 10 16 10 5 0 9 -4 9 -10z m-70 -25 c-14 -8 -34 -14 -45
-15 -12 0 -25 -4 -30 -9 -11 -9 -184 -68 -280 -96 -33 -9 -69 -20 -80 -25 -11
-4 -33 -13 -48 -19 -16 -6 -32 -9 -37 -6 -5 3 -11 1 -15 -5 -3 -5 -15 -10 -26
-10 -10 0 -19 -4 -19 -8 0 -5 -19 -14 -42 -21 -24 -7 -58 -19 -76 -27 -19 -9
-36 -13 -39 -10 -3 3 20 17 53 32 32 14 77 34 99 44 22 10 69 28 105 40 36 12
74 26 85 30 11 5 52 18 90 29 39 11 111 33 160 48 150 46 189 53 145 28z
m-2419 -14 c24 -10 116 -49 204 -86 88 -38 165 -72 170 -78 12 -12 14 -13
-116 41 -222 93 -327 140 -313 141 6 1 31 -7 55 -18z m2685 -80 c-6 -9 -91
-41 -110 -41 -24 0 14 22 60 34 27 7 50 14 52 15 2 0 1 -3 -2 -8z m-126 -49
c0 -6 -36 -21 -95 -39 -34 -10 -6 11 38 28 50 20 57 21 57 11z m-163 -68 c-3
-3 -12 -4 -19 -1 -8 3 -5 6 6 6 11 1 17 -2 13 -5z m-747 -59 c-7 -8 -17 -15
-23 -15 -6 0 -2 7 9 15 25 19 30 19 14 0z m-333 -50 c-23 -22 -33 -18 -12 5
10 11 20 18 23 16 2 -3 -3 -12 -11 -21z m813 11 c0 -2 -7 -7 -16 -10 -8 -3
-12 -2 -9 4 6 10 25 14 25 6z m-84 -35 c-6 -9 -46 -22 -46 -15 0 3 10 9 23 14
29 11 29 11 23 1z"/>
<path d="M3970 6151 c0 -5 7 -15 17 -22 15 -13 15 -12 4 9 -12 23 -21 28 -21
13z"/>
<path d="M4086 6001 c15 -23 29 -39 32 -37 7 8 -31 69 -46 74 -8 2 -1 -14 14
-37z"/>
<path d="M3940 5981 c0 -6 5 -13 10 -16 6 -3 10 1 10 9 0 9 -4 16 -10 16 -5 0
-10 -4 -10 -9z"/>
<path d="M3985 5910 c-4 -6 -3 -16 3 -22 13 -13 23 4 13 21 -7 10 -10 10 -16
1z"/>
<path d="M4150 5916 c0 -1 5 -17 11 -35 11 -30 39 -44 39 -18 -1 19 -50 73
-50 53z"/>
<path d="M4025 5840 c3 -5 8 -10 11 -10 2 0 4 5 4 10 0 6 -5 10 -11 10 -5 0
-7 -4 -4 -10z"/>
<path d="M4090 5815 c0 -8 4 -15 10 -15 5 0 7 7 4 15 -4 8 -8 15 -10 15 -2 0
-4 -7 -4 -15z"/>
<path d="M4140 5720 c8 -16 8 -20 -4 -20 -8 0 -20 8 -25 18 -6 9 -10 13 -10 7
0 -5 10 -23 23 -39 l24 -29 7 31 c7 33 1 52 -16 52 -6 0 -6 -8 1 -20z"/>
<path d="M3930 5721 c0 -6 9 -15 19 -21 11 -5 23 -19 26 -30 3 -11 11 -20 16
-20 17 0 9 26 -13 47 -31 28 -48 36 -48 24z"/>
<path d="M4160 5640 c0 -5 5 -10 10 -10 6 0 10 5 10 10 0 6 -4 10 -10 10 -5 0
-10 -4 -10 -10z"/>
<path d="M4036 5621 c-4 -7 -5 -15 -2 -18 9 -9 19 4 14 18 -4 11 -6 11 -12 0z"/>
<path d="M4210 5579 c0 -15 7 -32 15 -39 12 -10 15 -9 15 7 0 10 -7 28 -15 39
-14 18 -14 18 -15 -7z"/>
<path d="M4085 5541 c-3 -5 -1 -12 5 -16 5 -3 10 1 10 9 0 18 -6 21 -15 7z"/>
<path d="M3920 5531 c0 -5 11 -11 25 -13 20 -4 23 -3 14 8 -13 16 -39 19 -39
5z"/>
<path d="M4134 5476 c-6 -17 2 -36 17 -36 12 0 12 37 -1 45 -6 3 -13 -1 -16
-9z"/>
<path d="M3940 5452 c0 -12 19 -26 26 -19 2 2 -2 10 -11 17 -9 8 -15 8 -15 2z"/>
<path d="M3970 5411 c0 -6 5 -13 10 -16 6 -3 10 1 10 9 0 9 -4 16 -10 16 -5 0
-10 -4 -10 -9z"/>
<path d="M4181 5406 c-18 -22 -4 -40 16 -20 10 10 12 19 6 25 -6 6 -14 5 -22
-5z"/>
<path d="M4050 5393 c0 -13 5 -23 10 -23 13 0 13 11 0 30 -8 12 -10 11 -10 -7z"/>
<path d="M4238 5326 c-28 -21 -22 -37 10 -30 34 9 36 10 29 29 -8 18 -16 19
-39 1z"/>
<path d="M4090 5313 c0 -5 6 -15 13 -22 10 -11 8 -13 -10 -8 -20 4 -21 3 -12
-15 8 -16 13 -17 25 -7 17 14 15 50 -3 57 -7 2 -13 0 -13 -5z"/>
<path d="M3900 5277 c0 -9 4 -17 10 -17 5 0 25 -16 45 -37 19 -20 35 -31 35
-26 0 12 -22 37 -62 73 -23 19 -28 21 -28 7z"/>
<path d="M4144 5215 c-7 -18 2 -45 15 -45 12 0 24 37 16 50 -9 15 -25 12 -31
-5z m26 -15 c0 -5 -2 -10 -4 -10 -3 0 -8 5 -11 10 -3 6 -1 10 4 10 6 0 11 -4
11 -10z"/>
<path d="M4020 5156 c0 -9 5 -16 10 -16 6 0 10 4 10 9 0 6 -4 13 -10 16 -5 3
-10 -1 -10 -9z"/>
<path d="M4213 5136 c4 -9 2 -16 -3 -16 -13 0 -13 -27 1 -35 10 -7 38 21 39
37 0 4 -10 12 -22 19 -18 10 -20 9 -15 -5z"/>
<path d="M4065 5109 c-9 -13 2 -59 14 -59 5 0 14 6 20 14 9 11 9 19 -1 35 -14
23 -24 26 -33 10z"/>
<path d="M3900 5077 c0 -17 50 -61 58 -52 7 7 -30 57 -46 63 -7 2 -12 -3 -12
-11z"/>
<path d="M4120 5020 c0 -28 13 -40 24 -22 7 12 -5 52 -15 52 -5 0 -9 -13 -9
-30z"/>
<path d="M3980 4981 c10 -21 30 -37 30 -26 0 14 -21 45 -31 45 -6 0 -6 -7 1
-19z"/>
<path d="M4160 4950 c0 -11 5 -20 10 -20 6 0 10 -6 10 -14 0 -16 18 -31 27
-22 8 7 -26 76 -37 76 -6 0 -10 -9 -10 -20z"/>
<path d="M4034 4926 c-4 -10 -2 -22 4 -28 8 -8 13 -7 18 6 4 10 2 22 -4 28 -8
8 -13 7 -18 -6z"/>
<path d="M4080 4860 c0 -11 7 -20 15 -20 17 0 18 2 9 24 -9 23 -24 20 -24 -4z"/>
<path d="M4216 4861 c-9 -14 5 -42 18 -38 15 5 14 39 -1 44 -6 2 -14 0 -17 -6z"/>
<path d="M3872 4830 c7 -11 16 -20 20 -20 15 0 8 15 -12 28 -19 12 -20 11 -8
-8z"/>
<path d="M3910 4834 c0 -8 5 -12 10 -9 6 3 10 10 10 16 0 5 -4 9 -10 9 -5 0
-10 -7 -10 -16z"/>
<path d="M3930 4795 c-19 -23 -8 -25 14 -4 11 11 15 19 9 19 -6 0 -16 -7 -23
-15z"/>
<path d="M4128 4785 c5 -28 20 -33 29 -9 3 9 0 20 -8 25 -22 14 -27 11 -21
-16z"/>
<path d="M3990 4756 c0 -9 5 -16 10 -16 6 0 10 4 10 9 0 6 -4 13 -10 16 -5 3
-10 -1 -10 -9z"/>
<path d="M3962 4719 c2 -7 10 -15 17 -17 8 -3 12 1 9 9 -2 7 -10 15 -17 17 -8
3 -12 -1 -9 -9z"/>
<path d="M4170 4707 c0 -7 6 -21 13 -31 12 -17 14 -17 20 -2 4 9 4 23 1 31 -7
18 -34 20 -34 2z"/>
<path d="M4050 4690 c0 -5 5 -10 10 -10 6 0 10 5 10 10 0 6 -4 10 -10 10 -5 0
-10 -4 -10 -10z"/>
<path d="M4010 4636 c0 -8 5 -18 10 -21 6 -3 10 1 10 9 0 8 -4 18 -10 21 -5 3
-10 -1 -10 -9z"/>
<path d="M4102 4630 c0 -14 2 -19 5 -12 2 6 2 18 0 25 -3 6 -5 1 -5 -13z"/>
<path d="M3885 4600 c-8 -13 75 -104 84 -94 3 3 -9 19 -28 34 -18 16 -31 33
-27 38 3 5 -1 15 -8 21 -11 9 -16 9 -21 1z"/>
<path d="M4042 4579 c2 -7 10 -15 17 -17 8 -3 12 1 9 9 -2 7 -10 15 -17 17 -8
3 -12 -1 -9 -9z"/>
<path d="M4150 4569 c0 -9 9 -24 20 -34 26 -23 26 -4 0 26 -15 18 -19 20 -20
8z"/>
<path d="M4090 4499 c25 -35 34 -33 24 5 -4 17 -13 26 -26 26 -19 0 -19 -1 2
-31z"/>
<path d="M4200 4485 c0 -8 7 -15 15 -15 8 0 15 7 15 15 0 8 -7 15 -15 15 -8 0
-15 -7 -15 -15z"/>
<path d="M4130 4446 c0 -25 12 -46 26 -46 17 0 18 32 2 48 -16 16 -28 15 -28
-2z"/>
<path d="M4182 4345 c11 -34 31 -50 49 -39 16 10 -28 73 -53 74 -3 0 -1 -16 4
-35z"/>
<path d="M4955 5340 c-3 -5 -1 -10 4 -10 6 0 11 5 11 10 0 6 -2 10 -4 10 -3 0
-8 -4 -11 -10z"/>
<path d="M4967 5313 c-4 -3 -7 -13 -7 -22 1 -13 3 -13 11 2 11 19 8 33 -4 20z"/>
<path d="M5050 5160 c0 -5 5 -10 11 -10 5 0 7 5 4 10 -3 6 -8 10 -11 10 -2 0
-4 -4 -4 -10z"/>
<path d="M4990 4674 c0 -8 5 -12 10 -9 6 3 10 10 10 16 0 5 -4 9 -10 9 -5 0
-10 -7 -10 -16z"/>
<path d="M4855 4420 c-3 -5 -1 -10 4 -10 6 0 11 5 11 10 0 6 -2 10 -4 10 -3 0
-8 -4 -11 -10z"/>
<path d="M4845 4230 c3 -5 8 -10 11 -10 2 0 4 5 4 10 0 6 -5 10 -11 10 -5 0
-7 -4 -4 -10z"/>
<path d="M3085 5730 c-3 -5 -1 -10 4 -10 6 0 11 5 11 10 0 6 -2 10 -4 10 -3 0
-8 -4 -11 -10z"/>
<path d="M2490 5379 c0 -5 5 -7 10 -4 6 3 10 8 10 11 0 2 -4 4 -10 4 -5 0 -10
-5 -10 -11z"/>
<path d="M3174 5371 c4 -6 14 -11 22 -11 8 0 19 -11 24 -25 11 -28 40 -24 40
5 0 23 -5 26 -54 35 -28 6 -37 5 -32 -4z"/>
<path d="M2396 5301 c-4 -7 -5 -15 -2 -18 9 -9 19 4 14 18 -4 11 -6 11 -12 0z"/>
<path d="M2304 5286 c11 -9 27 -16 35 -16 21 0 2 16 -29 24 -24 7 -24 6 -6 -8z"/>
<path d="M3160 5216 c0 -15 37 -32 47 -22 3 3 3 12 0 21 -8 19 -47 20 -47 1z"/>
<path d="M2246 5141 c-3 -5 1 -11 9 -15 8 -3 15 -1 15 4 0 13 -18 22 -24 11z"/>
<path d="M3190 5051 c0 -27 19 -36 37 -18 18 18 9 37 -18 37 -12 0 -19 -7 -19
-19z"/>
<path d="M2190 4942 c0 -10 50 -35 57 -28 3 2 -9 12 -26 21 -17 8 -31 12 -31
7z"/>
<path d="M2215 4780 c3 -5 8 -10 11 -10 2 0 4 5 4 10 0 6 -5 10 -11 10 -5 0
-7 -4 -4 -10z"/>
<path d="M3195 4629 c-4 -6 -5 -13 -2 -16 7 -7 27 6 27 18 0 12 -17 12 -25 -2z"/>
<path d="M2090 4609 c-17 -30 -6 -34 14 -4 9 14 12 25 7 25 -6 0 -15 -9 -21
-21z"/>
<path d="M2063 4475 c-3 -9 -3 -18 -1 -21 3 -3 8 4 11 16 6 23 -1 27 -10 5z"/>
<path d="M2225 4390 c3 -5 10 -10 16 -10 5 0 9 5 9 10 0 6 -7 10 -16 10 -8 0
-12 -4 -9 -10z"/>
<path d="M2310 4370 c0 -5 5 -10 11 -10 5 0 7 5 4 10 -3 6 -8 10 -11 10 -2 0
-4 -4 -4 -10z"/>
<path d="M2586 4280 c-19 -6 -19 -7 -1 -13 20 -8 29 -4 24 11 -2 5 -13 6 -23
2z"/>
<path d="M2651 4264 c0 -11 3 -14 6 -6 3 7 2 16 -1 19 -3 4 -6 -2 -5 -13z"/>
<path d="M2790 4214 c0 -8 5 -12 10 -9 6 3 10 10 10 16 0 5 -4 9 -10 9 -5 0
-10 -7 -10 -16z"/>
<path d="M2870 4190 c0 -5 5 -10 11 -10 5 0 7 5 4 10 -3 6 -8 10 -11 10 -2 0
-4 -4 -4 -10z"/>
<path d="M3175 4181 c-3 -5 -1 -12 5 -16 5 -3 10 1 10 9 0 18 -6 21 -15 7z"/>
<path d="M3290 4146 c0 -17 6 -22 23 -22 17 1 21 -4 20 -21 -3 -24 12 -32 20
-10 3 7 6 5 6 -5 1 -20 36 -25 46 -8 10 16 -9 34 -65 63 l-50 26 0 -23z"/>
<path d="M3016 4102 c-3 -6 1 -13 10 -16 23 -9 28 -2 10 13 -8 7 -17 8 -20 3z"/>
<path d="M3125 4050 c-19 -8 -19 -9 2 -9 12 -1 25 4 28 9 7 12 -2 12 -30 0z"/>
<path d="M3370 4051 c0 -6 4 -13 10 -16 6 -3 7 1 4 9 -7 18 -14 21 -14 7z"/>
<path d="M3286 3962 c-3 -6 -1 -14 5 -17 15 -10 25 3 12 16 -7 7 -13 7 -17 1z"/>
<path d="M6500 6020 c0 -5 5 -10 11 -10 5 0 7 5 4 10 -3 6 -8 10 -11 10 -2 0
-4 -4 -4 -10z"/>
<path d="M6380 5975 c0 -8 6 -15 14 -15 22 0 28 17 10 24 -22 9 -24 8 -24 -9z"/>
<path d="M6335 5950 c-3 -5 1 -10 9 -10 9 0 16 5 16 10 0 6 -4 10 -9 10 -6 0
-13 -4 -16 -10z"/>
<path d="M6296 5935 c-3 -9 0 -15 9 -15 16 0 20 16 6 24 -5 3 -11 -1 -15 -9z"/>
<path d="M6150 5875 c0 -9 6 -12 15 -9 8 4 15 10 15 15 0 5 -7 9 -15 9 -8 0
-15 -7 -15 -15z"/>
<path d="M6105 5860 c-3 -5 1 -10 9 -10 9 0 16 5 16 10 0 6 -4 10 -9 10 -6 0
-13 -4 -16 -10z"/>
<path d="M6062 5841 c2 -7 7 -12 11 -12 12 1 9 15 -3 20 -7 2 -11 -2 -8 -8z"/>
<path d="M6485 5815 c-22 -13 -48 -24 -57 -24 -20 -1 -25 -31 -6 -31 6 0 26
11 44 25 18 14 37 25 42 25 5 0 15 7 22 15 17 21 3 17 -45 -10z"/>
<path d="M5995 5809 c-12 -19 5 -23 22 -6 16 16 16 17 1 17 -9 0 -20 -5 -23
-11z"/>
<path d="M5935 5780 c-3 -5 1 -10 9 -10 8 0 18 5 21 10 3 6 -1 10 -9 10 -8 0
-18 -4 -21 -10z"/>
<path d="M5870 5755 c-7 -8 -19 -15 -26 -15 -8 0 -14 -5 -14 -11 0 -6 6 -8 13
-5 6 3 20 9 29 12 18 6 33 34 19 34 -5 0 -14 -7 -21 -15z"/>
<path d="M6350 5755 c0 -8 5 -15 10 -15 6 0 10 7 10 15 0 8 -4 15 -10 15 -5 0
-10 -7 -10 -15z"/>
<path d="M6310 5735 c0 -16 16 -20 24 -6 3 5 -1 11 -9 15 -9 3 -15 0 -15 -9z"/>
<path d="M6260 5711 c0 -14 5 -19 15 -14 17 6 15 25 -3 31 -7 2 -12 -5 -12
-17z"/>
<path d="M5773 5713 c-18 -6 -16 -23 1 -23 17 0 30 16 19 23 -5 2 -14 2 -20 0z"/>
<path d="M6210 5691 c0 -12 5 -21 10 -21 6 0 10 6 10 14 0 8 -4 18 -10 21 -5
3 -10 -3 -10 -14z"/>
<path d="M6561 5688 c0 -14 -7 -28 -13 -31 -7 -2 -11 -7 -8 -10 13 -14 31 12
27 39 -4 29 -4 29 -6 2z"/>
<path d="M5690 5675 c-18 -34 -10 -38 29 -13 24 16 29 23 19 29 -22 14 -34 10
-48 -16z"/>
<path d="M5445 5670 c-3 -5 1 -10 9 -10 9 0 16 5 16 10 0 6 -4 10 -9 10 -6 0
-13 -4 -16 -10z"/>
<path d="M6160 5665 c0 -8 4 -15 10 -15 5 0 7 7 4 15 -4 8 -8 15 -10 15 -2 0
-4 -7 -4 -15z"/>
<path d="M6097 5636 c-10 -25 -2 -31 25 -18 17 8 19 11 6 11 -9 1 -18 6 -20
13 -3 7 -7 5 -11 -6z"/>
<path d="M6480 5630 c0 -5 -7 -10 -17 -10 -9 0 -14 -3 -10 -6 8 -8 47 5 47 17
0 5 -4 9 -10 9 -5 0 -10 -4 -10 -10z"/>
<path d="M6010 5590 c0 -11 5 -20 10 -20 6 0 10 9 10 20 0 11 -4 20 -10 20 -5
0 -10 -9 -10 -20z"/>
<path d="M6040 5600 c0 -5 5 -10 11 -10 5 0 7 5 4 10 -3 6 -8 10 -11 10 -2 0
-4 -4 -4 -10z"/>
<path d="M5937 5593 c-7 -11 -4 -40 6 -49 4 -4 9 0 13 9 7 18 -10 54 -19 40z"/>
<path d="M5875 5557 c-4 -10 -3 -23 3 -29 14 -14 21 3 12 27 -7 19 -8 19 -15
2z"/>
<path d="M6600 5555 c0 -8 7 -15 15 -15 8 0 15 7 15 15 0 8 -7 15 -15 15 -8 0
-15 -7 -15 -15z"/>
<path d="M5812 5528 c2 -6 10 -14 16 -16 7 -2 10 2 6 12 -7 18 -28 22 -22 4z"/>
<path d="M6535 5530 c-3 -5 1 -10 9 -10 9 0 16 5 16 10 0 6 -4 10 -9 10 -6 0
-13 -4 -16 -10z"/>
<path d="M5753 5522 c-6 -4 -15 -20 -19 -36 -5 -22 -4 -28 7 -24 8 3 15 14 17
26 2 12 10 22 18 22 8 0 14 5 14 10 0 12 -20 13 -37 2z"/>
<path d="M6215 5520 c3 -5 8 -10 11 -10 2 0 4 5 4 10 0 6 -5 10 -11 10 -5 0
-7 -4 -4 -10z"/>
<path d="M6150 5496 c0 -9 7 -16 16 -16 17 0 14 22 -4 28 -7 2 -12 -3 -12 -12z"/>
<path d="M6470 5500 c-12 -8 -11 -10 8 -10 12 0 22 5 22 10 0 13 -11 13 -30 0z"/>
<path d="M5671 5486 c-8 -9 -11 -19 -7 -23 9 -9 29 13 24 27 -2 8 -8 7 -17 -4z"/>
<path d="M6086 5491 c-4 -7 -5 -15 -2 -18 9 -9 19 4 14 18 -4 11 -6 11 -12 0z"/>
<path d="M5990 5460 c0 -5 4 -10 9 -10 6 0 13 5 16 10 3 6 -1 10 -9 10 -9 0
-16 -4 -16 -10z"/>
<path d="M6390 5460 c-13 -8 -12 -10 3 -10 9 0 17 5 17 10 0 12 -1 12 -20 0z"/>
<path d="M5630 5440 c0 -19 3 -21 12 -12 9 9 9 15 0 24 -9 9 -12 7 -12 -12z"/>
<path d="M6075 5449 c-11 -17 -2 -18 25 -4 24 14 24 14 3 15 -12 0 -25 -5 -28
-11z"/>
<path d="M5580 5430 c0 -11 6 -20 13 -20 19 0 27 10 20 26 -8 21 -33 17 -33
-6z"/>
<path d="M6620 5431 c0 -5 6 -13 13 -19 15 -13 42 1 33 17 -8 13 -46 15 -46 2z"/>
<path d="M6015 5420 c3 -5 8 -10 11 -10 2 0 4 5 4 10 0 6 -5 10 -11 10 -5 0
-7 -4 -4 -10z"/>
<path d="M6566 5402 c6 -4 13 -12 15 -19 3 -9 9 -9 19 -3 13 9 13 11 0 20 -8
5 -22 10 -30 10 -10 0 -11 -3 -4 -8z"/>
<path d="M6200 5380 c-8 -5 -11 -12 -7 -16 4 -4 13 -2 19 4 15 15 7 24 -12 12z"/>
<path d="M6450 5366 c0 -2 8 -10 18 -17 15 -13 16 -12 3 4 -13 16 -21 21 -21
13z"/>
<path d="M6120 5340 c20 -13 33 -13 25 0 -3 6 -14 10 -23 10 -15 0 -15 -2 -2
-10z"/>
<path d="M6386 5332 c-3 -6 -1 -14 5 -17 15 -10 25 3 12 16 -7 7 -13 7 -17 1z"/>
<path d="M6050 5315 c7 -8 16 -15 21 -15 5 0 6 7 3 15 -4 8 -13 15 -21 15 -13
0 -13 -3 -3 -15z"/>
<path d="M6652 5300 c-23 -17 -49 -30 -57 -30 -15 0 -28 -14 -19 -22 7 -7 144
67 144 78 0 12 -30 0 -68 -26z"/>
<path d="M5687 5290 c-3 -13 0 -20 9 -20 15 0 19 26 5 34 -5 3 -11 -3 -14 -14z"/>
<path d="M6320 5300 c0 -5 7 -10 16 -10 8 0 12 5 9 10 -3 6 -10 10 -16 10 -5
0 -9 -4 -9 -10z"/>
<path d="M6270 5280 c0 -5 5 -10 11 -10 5 0 7 5 4 10 -3 6 -8 10 -11 10 -2 0
-4 -4 -4 -10z"/>
<path d="M5886 5246 c3 -9 11 -16 16 -16 13 0 5 23 -10 28 -7 2 -10 -2 -6 -12z"/>
<path d="M6525 5230 c-3 -5 -17 -10 -31 -10 -15 0 -24 -6 -24 -15 0 -16 16
-20 24 -6 3 4 19 11 36 15 18 3 29 10 25 16 -8 13 -22 13 -30 0z"/>
<path d="M6050 5190 c0 -5 5 -10 11 -10 5 0 7 5 4 10 -3 6 -8 10 -11 10 -2 0
-4 -4 -4 -10z"/>
<path d="M6410 5186 c0 -8 5 -18 10 -21 6 -3 10 1 10 9 0 8 -4 18 -10 21 -5 3
-10 -1 -10 -9z"/>
<path d="M6325 5170 c-3 -5 -2 -10 4 -10 5 0 13 5 16 10 3 6 2 10 -4 10 -5 0
-13 -4 -16 -10z"/>
<path d="M6730 5160 c0 -11 -16 -30 -37 -45 -48 -32 -36 -32 27 1 53 28 57 33
38 52 -18 18 -28 15 -28 -8z"/>
<path d="M5990 5156 c0 -9 5 -16 10 -16 6 0 10 4 10 9 0 6 -4 13 -10 16 -5 3
-10 -1 -10 -9z"/>
<path d="M6357 5146 c-9 -7 -17 -16 -17 -19 0 -8 39 4 45 14 9 14 -10 18 -28
5z"/>
<path d="M5930 5135 c0 -8 5 -15 10 -15 6 0 10 7 10 15 0 8 -4 15 -10 15 -5 0
-10 -7 -10 -15z"/>
<path d="M6250 5142 c0 -5 7 -13 16 -16 10 -4 14 -1 12 6 -5 15 -28 23 -28 10z"/>
<path d="M5800 5105 c-11 -13 -10 -14 4 -9 9 3 16 10 16 15 0 13 -6 11 -20 -6z"/>
<path d="M6580 5091 c0 -5 9 -11 21 -14 16 -4 18 -3 8 9 -13 16 -29 19 -29 5z"/>
<path d="M5727 5083 c-8 -13 2 -43 14 -43 10 0 10 8 0 34 -5 12 -10 16 -14 9z"/>
<path d="M6546 5059 c-16 -16 -17 -19 -4 -19 18 0 43 26 31 33 -4 2 -17 -4
-27 -14z"/>
<path d="M5637 5054 c-9 -9 15 -55 27 -51 18 6 14 57 -4 57 -9 0 -19 -3 -23
-6z"/>
<path d="M6070 5024 c0 -8 5 -12 10 -9 6 4 8 11 5 16 -9 14 -15 11 -15 -7z"/>
<path d="M6784 5024 c3 -9 6 -18 6 -20 0 -3 4 -3 10 1 11 7 2 35 -12 35 -6 0
-7 -7 -4 -16z"/>
<path d="M6010 5021 c0 -6 5 -13 10 -16 6 -3 10 1 10 9 0 9 -4 16 -10 16 -5 0
-10 -4 -10 -9z"/>
<path d="M6460 5015 c0 -9 6 -12 15 -9 8 4 12 10 9 15 -8 14 -24 10 -24 -6z"/>
<path d="M5971 4984 c0 -11 3 -14 6 -6 3 7 2 16 -1 19 -3 4 -6 -2 -5 -13z"/>
<path d="M6380 4980 c0 -18 3 -19 20 -10 22 12 18 30 -6 30 -8 0 -14 -9 -14
-20z"/>
<path d="M6712 4985 c-16 -9 -19 -14 -10 -17 17 -6 48 2 48 13 0 14 -15 16
-38 4z"/>
<path d="M6300 4951 c0 -11 4 -21 9 -21 18 0 21 18 6 30 -13 10 -15 9 -15 -9z"/>
<path d="M5817 4931 c-3 -14 -1 -18 9 -14 8 3 14 11 14 19 0 21 -17 17 -23 -5z"/>
<path d="M6220 4933 c0 -23 15 -39 24 -25 3 5 -1 18 -9 28 -14 18 -14 18 -15
-3z"/>
<path d="M6630 4930 c0 -5 5 -10 10 -10 6 0 10 5 10 10 0 6 -4 10 -10 10 -5 0
-10 -4 -10 -10z"/>
<path d="M5671 4893 c-8 -21 -19 -41 -25 -45 -7 -5 -5 -8 6 -8 20 0 58 46 58
71 0 33 -25 21 -39 -18z"/>
<path d="M6540 4911 c0 -6 5 -13 10 -16 6 -3 10 1 10 9 0 9 -4 16 -10 16 -5 0
-10 -4 -10 -9z"/>
<path d="M5755 4899 c-9 -14 -2 -20 14 -10 8 6 9 11 3 15 -6 3 -14 1 -17 -5z"/>
<path d="M6140 4891 c0 -12 6 -21 15 -21 8 0 15 4 15 9 0 5 -7 14 -15 21 -13
10 -15 9 -15 -9z"/>
<path d="M6078 4865 c-3 -14 -1 -25 3 -25 5 0 9 11 9 25 0 14 -2 25 -4 25 -2
0 -6 -11 -8 -25z"/>
<path d="M5595 4856 c-11 -8 -14 -15 -8 -19 6 -4 16 0 23 8 17 21 8 28 -15 11z"/>
<path d="M6781 4854 c0 -11 3 -14 6 -6 3 7 2 16 -1 19 -3 4 -6 -2 -5 -13z"/>
<path d="M5986 4844 c-11 -7 -16 -17 -13 -21 4 -4 15 1 24 10 22 21 14 30 -11
11z"/>
<path d="M5914 4839 c-3 -6 -1 -16 5 -22 8 -8 11 -5 11 11 0 24 -5 28 -16 11z"/>
<path d="M6360 4840 c-21 -13 2 -35 27 -25 12 5 14 9 5 12 -6 3 -10 9 -6 14 7
12 -7 11 -26 -1z"/>
<path d="M6690 4816 c0 -19 20 -32 21 -14 0 7 4 4 9 -7 10 -23 13 -5 4 19 -8
20 -34 21 -34 2z"/>
<path d="M5871 4804 c0 -11 3 -14 6 -6 3 7 2 16 -1 19 -3 4 -6 -2 -5 -13z"/>
<path d="M6290 4811 c0 -5 -3 -16 -6 -24 -4 -12 0 -14 15 -10 24 6 23 5 15 27
-7 17 -24 22 -24 7z"/>
<path d="M6810 4800 c-12 -8 -11 -10 7 -10 12 0 25 5 28 10 8 13 -15 13 -35 0z"/>
<path d="M5810 4781 c0 -12 5 -21 10 -21 6 0 10 6 10 14 0 8 -4 18 -10 21 -5
3 -10 -3 -10 -14z"/>
<path d="M6190 4770 c-18 -12 -2 -12 25 0 13 6 15 9 5 9 -8 0 -22 -4 -30 -9z"/>
<path d="M6550 4760 c0 -5 4 -10 9 -10 6 0 13 5 16 10 3 6 -1 10 -9 10 -9 0
-16 -4 -16 -10z"/>
<path d="M6625 4760 c-3 -5 -1 -10 4 -10 6 0 11 5 11 10 0 6 -2 10 -4 10 -3 0
-8 -4 -11 -10z"/>
<path d="M6100 4740 c0 -5 4 -10 9 -10 6 0 13 5 16 10 3 6 -1 10 -9 10 -9 0
-16 -4 -16 -10z"/>
<path d="M6473 4733 c-18 -7 -16 -23 2 -23 8 0 15 7 15 15 0 8 -1 15 -2 14 -2
0 -9 -3 -15 -6z"/>
<path d="M6844 4715 c-20 -15 -11 -18 20 -6 11 4 15 10 9 14 -5 3 -19 0 -29
-8z"/>
<path d="M6410 4700 c0 -5 4 -10 9 -10 6 0 13 5 16 10 3 6 -1 10 -9 10 -9 0
-16 -4 -16 -10z"/>
<path d="M5990 4690 c0 -5 4 -10 9 -10 6 0 13 5 16 10 3 6 -1 10 -9 10 -9 0
-16 -4 -16 -10z"/>
<path d="M6350 4680 c0 -5 5 -10 10 -10 6 0 10 5 10 10 0 6 -4 10 -10 10 -5 0
-10 -4 -10 -10z"/>
<path d="M6850 4680 c0 -5 7 -10 15 -10 8 0 15 5 15 10 0 6 -7 10 -15 10 -8 0
-15 -4 -15 -10z"/>
<path d="M6785 4670 c3 -5 14 -10 23 -10 15 0 15 2 2 10 -20 13 -33 13 -25 0z"/>
<path d="M5867 4650 c3 -11 9 -17 14 -15 10 7 1 35 -11 35 -5 0 -6 -9 -3 -20z"/>
<path d="M6245 4650 c-3 -5 3 -10 14 -10 12 0 21 5 21 10 0 6 -6 10 -14 10 -8
0 -18 -4 -21 -10z"/>
<path d="M6723 4643 c-7 -2 -13 -8 -13 -13 0 -10 38 -1 46 11 6 10 -13 11 -33
2z"/>
<path d="M6200 4624 c0 -8 5 -12 10 -9 6 4 8 11 5 16 -9 14 -15 11 -15 -7z"/>
<path d="M6620 4620 c6 -11 15 -18 20 -15 13 8 0 35 -16 35 -12 0 -12 -4 -4
-20z"/>
<path d="M5780 4615 c0 -8 5 -15 10 -15 6 0 10 7 10 15 0 8 -4 15 -10 15 -5 0
-10 -7 -10 -15z"/>
<path d="M5695 4601 c-16 -9 -32 -17 -34 -18 -6 -4 21 -33 30 -33 5 0 9 9 9
20 0 11 5 20 10 20 6 0 10 -4 10 -10 0 -5 5 -10 10 -10 12 0 14 37 3 43 -5 2
-21 -3 -38 -12z"/>
<path d="M6560 4599 c7 -11 14 -19 16 -16 7 7 -7 37 -17 37 -6 0 -5 -9 1 -21z"/>
<path d="M6120 4599 c0 -5 5 -7 10 -4 6 3 10 8 10 11 0 2 -4 4 -10 4 -5 0 -10
-5 -10 -11z"/>
<path d="M6085 4590 c-4 -6 -10 -8 -15 -5 -5 3 -12 0 -15 -6 -12 -18 1 -20 29
-5 15 8 23 17 17 20 -5 4 -12 2 -16 -4z"/>
<path d="M6480 4570 c11 -21 22 -25 33 -13 9 9 -12 33 -30 33 -11 0 -11 -4 -3
-20z"/>
<path d="M6430 4560 c9 -17 8 -20 -8 -20 -10 0 -23 5 -30 12 -15 15 -24 6 -16
-16 12 -32 76 -10 67 24 -3 11 -9 20 -15 20 -5 0 -4 -9 2 -20z"/>
<path d="M5603 4563 c-14 -5 -18 -39 -5 -47 11 -7 38 11 29 20 -4 4 -2 13 4
21 12 14 -2 17 -28 6z"/>
<path d="M6846 4555 c4 -8 15 -15 26 -15 17 0 18 3 8 15 -7 8 -19 15 -26 15
-8 0 -11 -6 -8 -15z"/>
<path d="M5973 4552 c-13 -2 -23 -10 -23 -18 0 -17 8 -17 39 0 26 15 18 24
-16 18z"/>
<path d="M6795 4534 c9 -9 19 -13 23 -10 3 4 0 11 -8 16 -24 15 -33 11 -15 -6z"/>
<path d="M6290 4530 c0 -5 7 -7 15 -4 8 4 15 8 15 10 0 2 -7 4 -15 4 -8 0 -15
-4 -15 -10z"/>
<path d="M6726 4532 c-3 -5 1 -15 9 -22 16 -14 20 -3 6 19 -5 8 -11 9 -15 3z"/>
<path d="M5880 4505 c-10 -13 -9 -15 9 -15 12 0 21 6 21 15 0 8 -4 15 -9 15
-5 0 -14 -7 -21 -15z"/>
<path d="M5807 4493 c-4 -3 -7 -11 -7 -17 0 -6 5 -5 12 2 6 6 9 14 7 17 -3 3
-9 2 -12 -2z"/>
<path d="M6130 4480 c-11 -7 -12 -12 -3 -21 13 -13 33 -4 33 17 0 16 -9 18
-30 4z"/>
<path d="M6586 4466 c3 -9 11 -16 16 -16 13 0 5 23 -10 28 -7 2 -10 -2 -6 -12z"/>
<path d="M6900 4456 c0 -14 5 -26 10 -26 6 0 10 9 10 19 0 11 -4 23 -10 26 -6
4 -10 -5 -10 -19z"/>
<path d="M5720 4450 c0 -5 5 -10 10 -10 6 0 10 5 10 10 0 6 -4 10 -10 10 -5 0
-10 -4 -10 -10z"/>
<path d="M6520 4450 c0 -5 5 -10 10 -10 6 0 10 5 10 10 0 6 -4 10 -10 10 -5 0
-10 -4 -10 -10z"/>
<path d="M6830 4452 c0 -18 28 -45 39 -38 9 6 8 13 -5 27 -18 20 -34 25 -34
11z"/>
<path d="M5640 4415 c-7 -9 -10 -18 -7 -22 8 -7 37 15 37 28 0 14 -16 11 -30
-6z"/>
<path d="M6000 4420 c-12 -8 -11 -10 7 -10 12 0 25 5 28 10 8 13 -15 13 -35 0z"/>
<path d="M6405 4419 c-10 -15 1 -22 24 -14 12 3 19 11 16 16 -8 12 -32 11 -40
-2z"/>
<path d="M5562 4388 c-15 -19 2 -48 19 -31 7 7 8 17 2 28 -8 13 -11 14 -21 3z"/>
<path d="M5920 4385 c0 -9 5 -15 11 -13 6 2 11 8 11 13 0 5 -5 11 -11 13 -6 2
-11 -4 -11 -13z"/>
<path d="M6755 4390 c-7 -12 2 -12 30 0 19 8 19 9 -2 9 -12 1 -25 -3 -28 -9z"/>
<path d="M6320 4376 c0 -18 6 -19 35 -6 11 5 15 9 8 9 -6 1 -18 4 -27 7 -11 4
-16 1 -16 -10z"/>
<path d="M6685 4371 c-3 -6 -15 -11 -26 -11 -20 0 -26 -15 -10 -24 11 -7 58
30 50 39 -4 3 -10 2 -14 -4z"/>
<path d="M5790 4334 c0 -14 4 -23 10 -19 6 3 10 15 10 26 0 10 -4 19 -10 19
-5 0 -10 -12 -10 -26z"/>
<path d="M6216 4349 c4 -8 -1 -9 -17 -4 -21 7 -22 6 -11 -8 10 -12 19 -13 48
-4 30 9 33 12 18 18 -29 11 -46 10 -38 -2z"/>
<path d="M6590 4350 c0 -5 5 -10 10 -10 6 0 10 5 10 10 0 6 -4 10 -10 10 -5 0
-10 -4 -10 -10z"/>
<path d="M5850 4341 c0 -6 5 -13 10 -16 6 -3 10 1 10 9 0 9 -4 16 -10 16 -5 0
-10 -4 -10 -9z"/>
<path d="M6107 4312 c-25 -27 -21 -32 13 -20 17 5 29 15 27 21 -6 19 -23 18
-40 -1z"/>
<path d="M6560 4320 c0 -13 28 -25 38 -16 3 4 0 11 -8 16 -20 13 -30 12 -30 0z"/>
<path d="M5721 4307 c-14 -6 -27 -19 -29 -27 -4 -11 0 -11 22 3 17 12 35 16
49 11 19 -6 20 -5 8 10 -16 19 -19 19 -50 3z"/>
<path d="M6510 4310 c0 -5 7 -10 15 -10 8 0 15 5 15 10 0 6 -7 10 -15 10 -8 0
-15 -4 -15 -10z"/>
<path d="M6443 4293 c-34 -4 -44 -19 -20 -29 18 -6 67 13 67 26 0 5 -3 9 -7 8
-5 0 -23 -3 -40 -5z"/>
<path d="M6016 4265 c4 -8 10 -12 15 -9 14 8 10 24 -6 24 -9 0 -12 -6 -9 -15z"/>
<path d="M6345 4241 c-10 -18 17 -23 33 -7 15 15 15 16 -5 16 -12 0 -24 -4
-28 -9z"/>
<path d="M5523 4211 c-24 -20 -30 -30 -22 -38 8 -8 20 -2 45 23 19 18 34 36
34 39 0 13 -28 2 -57 -24z"/>
<path d="M5875 4220 c-5 -15 -12 -19 -26 -15 -19 6 -27 -9 -9 -20 10 -6 50 29
50 45 0 17 -8 11 -15 -10z"/>
<path d="M5920 4226 c0 -9 5 -16 10 -16 6 0 10 4 10 9 0 6 -4 13 -10 16 -5 3
-10 -1 -10 -9z"/>
<path d="M6275 4210 c-3 -5 1 -10 9 -10 8 0 18 5 21 10 3 6 -1 10 -9 10 -8 0
-18 -4 -21 -10z"/>
<path d="M6210 4199 c0 -6 -7 -9 -15 -5 -8 3 -15 1 -15 -4 0 -17 18 -20 51 -8
29 10 31 12 13 19 -27 11 -34 10 -34 -2z"/>
<path d="M5710 4145 c-7 -9 -10 -19 -6 -22 8 -9 38 9 44 25 5 17 -23 15 -38
-3z"/>
<path d="M6073 4138 c-15 -17 -15 -18 0 -18 9 0 30 8 47 18 l30 19 -30 0 c-16
0 -37 -9 -47 -19z"/>
<path d="M6010 4125 c-7 -8 -16 -13 -20 -10 -5 3 -11 1 -15 -5 -4 -6 5 -10 19
-10 15 0 30 8 36 20 12 23 -2 27 -20 5z"/>
<path d="M5600 4098 c-57 -32 -76 -51 -59 -56 19 -7 119 52 119 71 0 21 6 22
-60 -15z"/>
<path d="M5843 4068 c-64 -36 -71 -57 -8 -24 24 13 50 26 56 28 7 2 10 9 8 15
-2 6 -25 -1 -56 -19z"/>
<path d="M5721 4001 c-13 -11 -28 -22 -34 -24 -7 -2 -9 -7 -6 -11 8 -8 79 32
79 45 0 14 -15 10 -39 -10z"/>
<path d="M5620 3939 c-7 -11 -9 -23 -7 -26 7 -6 57 27 57 38 0 18 -40 8 -50
-12z"/>
<path d="M5487 3932 c-23 -26 -22 -52 3 -52 19 0 40 33 40 61 0 15 -26 10 -43
-9z"/>
<path d="M5422 3867 c-7 -16 -12 -31 -12 -34 0 -3 -10 -18 -21 -35 -20 -27
-20 -30 -4 -27 30 6 57 52 53 90 l-4 34 -12 -28z"/>
<path d="M5544 3876 c-10 -8 -15 -18 -11 -22 4 -4 17 2 30 14 24 25 12 30 -19
8z"/>
<path d="M4820 1805 c-7 -9 -11 -17 -9 -20 3 -2 10 5 17 15 14 24 10 26 -8 5z"/>
<path d="M1492 4065 c3 -3 45 -19 93 -35 91 -31 126 -34 59 -5 -73 32 -169 56
-152 40z"/>
<path d="M6047 6725 c-32 -36 -113 -123 -181 -193 -148 -154 -300 -352 -283
-368 2 -3 20 14 38 38 57 73 149 177 260 294 126 131 251 294 227 294 -2 0
-29 -29 -61 -65z"/>
<path d="M2946 6715 c39 -72 87 -130 239 -290 74 -78 158 -176 186 -219 28
-42 54 -75 57 -72 6 7 -72 137 -123 203 -22 28 -103 118 -180 200 -77 82 -155
167 -173 188 l-33 40 27 -50z"/>
<path d="M1274 6398 c-52 -49 -124 -171 -124 -209 0 -8 -5 -32 -12 -54 l-12
-40 -7 40 c-4 22 -5 68 -2 103 7 77 -6 81 -38 10 -20 -46 -23 -70 -24 -183 -1
-71 -6 -139 -12 -149 -9 -17 -12 -15 -23 20 -26 79 -69 166 -80 159 -14 -9 -7
-59 26 -183 14 -52 24 -110 22 -130 l-3 -37 -45 70 -45 70 -3 -43 c-2 -30 6
-68 28 -124 17 -45 29 -83 27 -85 -5 -4 -77 74 -94 103 -11 18 -12 18 -12 -6
-1 -33 27 -92 76 -162 22 -32 46 -71 53 -88 16 -38 26 -31 34 22 8 56 52 131
115 200 28 31 51 59 51 62 0 13 -24 4 -66 -25 -25 -17 -48 -29 -51 -26 -18 19
59 168 130 250 27 32 47 60 44 64 -13 13 -63 -11 -94 -45 -43 -47 -42 -25 2
48 28 46 50 67 109 104 72 45 108 76 89 76 -20 0 -79 -24 -106 -43 -16 -10
-31 -17 -34 -14 -8 9 55 156 87 202 15 22 37 49 49 59 11 11 21 23 21 28 0 19
-24 5 -76 -44z"/>
<path d="M7743 6381 c46 -49 78 -102 109 -181 24 -61 23 -65 -14 -42 -40 24
-108 44 -108 31 0 -4 34 -31 75 -59 45 -30 85 -67 101 -91 42 -67 42 -75 -2
-45 -70 47 -72 33 -6 -56 53 -72 107 -183 118 -242 l7 -39 -83 57 c-45 31 -84
55 -86 53 -4 -4 19 -34 117 -154 61 -73 91 -147 82 -199 -8 -43 3 -26 37 55
16 40 45 94 65 121 41 56 68 116 59 131 -3 6 -28 -13 -55 -43 -40 -44 -48 -49
-49 -32 0 12 11 52 25 88 27 72 33 126 13 126 -13 0 -51 -50 -64 -82 -3 -10
-10 -18 -15 -18 -15 0 -10 73 11 155 21 81 27 156 11 140 -5 -6 -22 -46 -39
-90 l-30 -79 -17 39 c-14 35 -15 48 -4 98 15 72 7 148 -22 212 l-23 50 -11
-110 c-10 -97 -12 -105 -19 -70 -26 132 -54 193 -122 256 -84 78 -130 94 -61
20z"/>
<path d="M7850 5903 c0 -6 20 -33 45 -60 24 -26 44 -43 45 -38 0 6 -20 33 -45
60 -24 28 -44 45 -45 38z"/>
<path d="M8096 5027 c-3 -12 -8 -74 -11 -137 -5 -86 -3 -133 8 -185 17 -77 80
-248 94 -252 5 -2 14 44 21 101 7 57 19 126 27 153 19 62 19 92 -1 100 -9 3
-42 59 -74 124 -45 92 -59 113 -64 96z"/>
<path d="M860 4918 c-84 -142 -84 -142 -45 -316 14 -61 25 -121 25 -133 0 -36
15 -12 44 69 56 159 70 229 68 361 -1 68 -5 128 -10 133 -6 6 -39 -41 -82
-114z"/>
<path d="M657 4635 c-38 -86 -49 -135 -45 -200 3 -52 9 -70 30 -92 14 -16 38
-59 52 -98 15 -38 32 -81 39 -95 l11 -25 4 34 c4 43 -13 145 -39 233 -12 37
-24 116 -28 175 l-7 108 -17 -40z"/>
<path d="M8351 4580 c-1 -76 -4 -96 -31 -185 -26 -84 -30 -122 -22 -184 l7
-54 43 97 c49 111 76 220 66 274 -8 46 -41 122 -53 122 -5 0 -9 -31 -10 -70z"/>
<path d="M2340 1933 c-109 -5 -309 -33 -421 -58 -173 -39 -229 -75 -64 -41
160 33 400 30 720 -10 445 -56 704 -135 1145 -352 235 -116 349 -183 435 -256
59 -50 35 -56 -30 -7 -81 61 -256 156 -352 191 -146 52 -212 43 -456 -64 -224
-99 -371 -132 -552 -123 -130 5 -187 24 -253 81 l-44 40 7 -33 c21 -96 85
-215 145 -269 37 -33 138 -79 211 -97 75 -17 318 -20 480 -5 57 5 165 14 239
20 171 14 335 41 519 87 185 45 238 44 331 -10 36 -21 73 -43 82 -49 14 -10
25 -7 62 20 25 18 66 42 91 53 41 18 52 19 126 9 44 -6 91 -15 103 -20 43 -16
333 -70 456 -84 180 -22 565 -40 700 -33 175 9 315 55 390 129 42 41 92 132
114 206 16 57 12 62 -27 32 -14 -11 -52 -33 -84 -47 -50 -24 -74 -28 -181 -31
-202 -7 -283 12 -557 131 -198 86 -215 90 -299 85 -58 -4 -96 -15 -204 -62
-73 -31 -185 -85 -250 -119 -135 -73 -160 -84 -144 -64 23 28 291 186 442 262
448 224 731 310 1235 376 271 35 635 37 742 3 17 -5 17 -5 0 6 -31 20 -237 68
-368 86 -151 20 -505 15 -664 -11 -288 -46 -548 -138 -927 -327 -262 -130
-451 -249 -648 -408 -41 -33 -81 -63 -88 -66 -7 -4 -37 15 -70 43 -155 133
-454 319 -755 469 -274 137 -650 264 -873 293 -91 12 -349 32 -379 29 -11 -1
-49 -3 -85 -5z m280 -58 c132 -15 267 -40 160 -30 -25 2 -99 9 -165 15 -66 6
-156 14 -200 19 l-80 8 75 2 c41 0 136 -6 210 -14z m3810 -15 c-85 -10 -189
-23 -230 -28 -41 -6 -76 -9 -78 -7 -16 15 257 53 383 53 72 0 65 -2 -75 -18z
m-2649 -605 c135 -23 323 -95 303 -115 -9 -9 -112 -26 -490 -80 -111 -16 -275
-41 -365 -55 -332 -52 -512 -25 -619 92 -40 43 -49 73 -13 41 64 -56 193 -84
344 -74 126 8 210 30 414 111 162 64 259 92 316 94 15 1 64 -6 110 -14z m1681
-6 c29 -7 116 -38 193 -71 173 -74 300 -107 432 -115 160 -9 278 21 341 88 40
43 42 24 3 -25 -78 -98 -207 -148 -381 -148 -145 1 -1057 124 -1155 156 -22 8
107 57 235 90 146 38 239 45 332 25z"/>
</g>
</svg>
